<?xml version="1.0" encoding="utf-8"?>
<!-- Generator: Adobe Illustrator 25.2.1, SVG Export Plug-In . SVG Version: 6.00 Build 0)  -->
<svg version="1.1" id="ARTWORK" xmlns="http://www.w3.org/2000/svg" xmlns:xlink="http://www.w3.org/1999/xlink" x="0px" y="0px"
	 viewBox="0 0 870.2 532.9" style="enable-background:new 0 0 870.2 532.9;" xml:space="preserve">
<style type="text/css">
	.st0{fill:#FFFFFF;}
	.st1{fill:#1B276A;}
</style>
<g>
	<g>
		<path class="st0" d="M431.3,430.6c0,9.3-5,14.7-14.6,14.7c-8.9,0-13-5.8-13-14c0-9,4.9-14.2,14.2-14.2
			C426.8,417,431.3,421.9,431.3,430.6z M423.5,432.9c0-4.1-0.1-13.1-6.1-13.1c-5.4,0-5.8,6-5.8,10.1c0,4.2,0.4,12.6,6.4,12.6
			C423.1,442.5,423.5,436.6,423.5,432.9z"/>
		<path class="st0" d="M461.5,408.6l-0.9,0.4c-1.1-0.7-2.4-1.4-3.6-1.4c-3.6,0-3.6,2.3-3.6,5.3v6.3c2.6,0,5.3-0.1,7.6-0.2l0.2,0.5
			l-0.6,3.4h-7.2v15.7c0,1.4,0.1,2.1,0.2,2.7c0.2,0.6,1.4,0.9,2.7,1l2.6,0.1v2.1c-3.9-0.1-6.3-0.2-9.2-0.2c-2.5,0-5,0.1-8.2,0.2
			v-2.1l2.4-0.1c1.2-0.1,2-0.4,2.2-1c0.2-0.6,0.2-1.3,0.2-2.7v-15.7l-4.6,0.3v-1.4c1.6-0.8,3.2-1.6,4.6-2.6v-2.5
			c0-4.6,0.3-5.5,3.2-7.9l4.3-3.6c2.7-2.3,3.9-2.4,5.4-2.4c0.8,0,1.6,0.1,2.4,0.4V408.6z"/>
		<path class="st0" d="M213.4,480.1h5.8v1.4L206,501.2c-1.6,2.3-2.9,5-4,7.5V521c0,3.2,0.1,5.2,0.5,6.1c0.3,0.6,1.1,0.9,3.1,1.1
			l2.8,0.2v3c-3.1-0.1-7.2-0.2-11.7-0.2c-4.5,0-8.7,0.2-11.7,0.2v-3l2.8-0.2c2-0.1,2.8-0.5,3.1-1.1c0.5-0.9,0.5-2.9,0.5-6.1v-10.5
			c-1.4-3.2-2.3-4.8-3.3-6.4l-7.6-12.3c-1.1-1.7-2.6-3.6-3.9-5c-1.7-1.9-3.3-2.5-5.9-2.5v-2.8l12-2.7c4.1,2.3,6.5,6.2,8.6,10.2
			l8.1,15.3L213.4,480.1z"/>
		<path class="st0" d="M286.5,505.2c0,17.8-11.4,27.3-28.6,27.3c-16.9,0-27.1-9.2-27.1-26.3c0-17.8,11.4-27.2,28.6-27.2
			C276.3,478.8,286.5,488,286.5,505.2z M242.1,504.8c0,12.4,5.2,23.4,15.8,23.4c14,0,17.3-10.4,17.3-21.7c0-12.4-5.2-23.5-15.8-23.5
			C245.4,483,242.1,493.5,242.1,504.8z"/>
		<path class="st0" d="M306.8,490.3c0-3.2-0.1-5.2-0.5-6.1c-0.4-0.8-1.1-1.1-3.1-1.3l-2.8-0.2v-2.8c5,0.1,8.8,0.2,12.6,0.2
			c5.1,0,10.2-0.2,15.3-0.2c7.7-0.2,14.8,2.2,14.8,11.1c0,6.6-5,11.1-11.2,13.3l13.6,20.6c0.5,0.8,1.4,1.7,2.2,2.3
			c0.7,0.5,1.7,0.8,3.1,1.1v3c-2.4-0.1-4.9-0.2-7.3-0.2c-2.3,0-4.5,0.2-6.8,0.2l-16.9-26.1l0.5-1.4c6.9,0.6,12-3.7,12-10.8
			c0-6.2-4.3-9.5-10.2-9.5c-1.6,0-3.6,0.1-4.8,0.7V521c0,3.2,0.1,5.2,0.5,6.1c0.3,0.6,1.1,0.9,3.1,1.1l2.8,0.2v3
			c-3.1-0.1-7.2-0.2-11.7-0.2c-4.5,0-8.7,0.2-11.7,0.2v-3l2.8-0.2c2-0.1,2.8-0.5,3.1-1.1c0.5-0.9,0.5-2.9,0.5-6.1V490.3z"/>
		<path class="st0" d="M368.7,490.3c0-3.2-0.1-5.2-0.5-6.1c-0.3-0.6-1.1-0.9-3.1-1.1l-2.8-0.2v-3c3.1,0.1,7.2,0.2,11.7,0.2
			c4.4,0,8.6-0.2,11.7-0.2v3l-2.8,0.2c-2,0.1-2.8,0.5-3.1,1.1c-0.5,0.9-0.5,2.9-0.5,6.1v13.9c0,0.3,0.3,0.5,0.7,0.5l14.2-13.8
			c1.8-1.8,4.1-4.4,5.9-6.3c0.8-0.9,1.2-1.8,1.2-2.7v-1.9c2.3,0.1,4.6,0.2,6.8,0.2c2.3,0,4.6-0.2,6.8-0.2v2.9
			c-3.2,0.3-6,0.5-8.3,2.6l-16.7,15.6l20,23.6c1.6,1.9,3.6,3.8,6.8,3.8v3.1c-2.6-0.1-5-0.2-7.6-0.2c-2.6,0-5.1,0.2-7.7,0.2
			l-15.7-18.7c-1.7-2.1-4.3-5.3-5.7-5.9c-0.6-0.1-0.8,0.4-0.8,0.7V521c0,3.2,0.1,5.2,0.5,6.1c0.3,0.6,1.1,0.9,3.1,1.1l2.8,0.2v3
			c-3.1-0.1-7.2-0.2-11.7-0.2c-4.5,0-8.7,0.2-11.7,0.2v-3l2.8-0.2c2-0.1,2.8-0.5,3.1-1.1c0.5-0.9,0.5-2.9,0.5-6.1V490.3z"/>
		<path class="st0" d="M433.9,515.9l0.5,6.6c2,3.5,7.9,5.8,11.8,5.8c6.4,0,11.8-3.4,11.8-9.9c0-3.2-2-5.7-6.2-7l-10.5-3.2
			c-6.3-1.9-11-6.3-11-12.8c0-12,9-16.6,19.9-16.6c4.7,0,9.6,0.8,14,2.6l0.4,0.9c-0.8,2.4-1.1,6.8-1.1,10.7h-3.1l-0.5-6.2
			c-2.3-2.6-6.5-4.1-10-4.1c-7,0-10.3,4.1-10.3,9.1c0,3.4,2.4,5.9,8,7.3l8.6,2.3c6.9,1.8,11.4,6.2,11.4,12.9
			c0,12.8-10.6,18.1-22.1,18.1c-5.4,0-10.9-1.1-15.7-3.5c0.9-4.4,1.1-8.7,1.1-13H433.9z"/>
		<path class="st0" d="M498.7,502.1c1.1,0.1,2.6,0.1,6.1,0.1h11c3.5,0,5-0.1,6.1-0.1v-11.9c0-3.2-0.1-5.2-0.5-6.1
			c-0.3-0.6-1.1-0.9-3.1-1.1l-2.8-0.2v-3c3.1,0.1,7.2,0.2,11.7,0.2c4.4,0,8.6-0.2,11.7-0.2v3l-2.8,0.2c-2,0.1-2.8,0.5-3.1,1.1
			c-0.5,0.9-0.5,2.9-0.5,6.1V521c0,3.2,0.1,5.2,0.5,6.1c0.3,0.6,1.1,0.9,3.1,1.1l2.8,0.2v3c-3.1-0.1-7.2-0.2-11.7-0.2
			c-4.5,0-8.7,0.2-11.7,0.2v-3l2.8-0.2c2-0.1,2.8-0.5,3.1-1.1c0.5-0.9,0.5-2.9,0.5-6.1v-14.3c-1.1-0.1-2.6-0.1-6.1-0.1h-11
			c-3.5,0-5,0.1-6.1,0.1V521c0,3.2,0.1,5.2,0.5,6.1c0.3,0.6,1.1,0.9,3.1,1.1l2.8,0.2v3c-3.1-0.1-7.2-0.2-11.7-0.2
			c-4.5,0-8.7,0.2-11.7,0.2v-3l2.8-0.2c2-0.1,2.8-0.5,3.1-1.1c0.5-0.9,0.5-2.9,0.5-6.1v-30.7c0-3.2-0.1-5.2-0.5-6.1
			c-0.3-0.6-1.1-0.9-3.1-1.1l-2.8-0.2v-3c3.1,0.1,7.2,0.2,11.7,0.2c4.4,0,8.6-0.2,11.7-0.2v3l-2.8,0.2c-2,0.1-2.8,0.5-3.1,1.1
			c-0.5,0.9-0.5,2.9-0.5,6.1V502.1z"/>
		<path class="st0" d="M569.1,521c0,3.2,0.1,5.2,0.5,6.1c0.3,0.6,1.1,0.9,3.1,1.1l2.8,0.2v3c-3.1-0.1-7.2-0.2-11.7-0.2
			c-4.5,0-8.7,0.2-11.7,0.2v-3l2.8-0.2c2-0.1,2.8-0.5,3.1-1.1c0.5-0.9,0.5-2.9,0.5-6.1v-30.7c0-3.2-0.1-5.2-0.5-6.1
			c-0.3-0.6-1.1-0.9-3.1-1.1l-2.8-0.2v-3c3.1,0.1,7.2,0.2,11.7,0.2c4.4,0,8.6-0.2,11.7-0.2v3l-2.8,0.2c-2,0.1-2.8,0.5-3.1,1.1
			c-0.5,0.9-0.5,2.9-0.5,6.1V521z"/>
		<path class="st0" d="M595.3,490.3c0-3.2-0.1-5.2-0.5-6.1c-0.4-0.8-1.1-1.1-3.1-1.3l-2.8-0.2v-2.8c5,0.1,8.8,0.2,12.6,0.2
			c5.1,0,10.2-0.2,15.3-0.2c7.7-0.2,14.8,2.2,14.8,11.1c0,6.6-5,11.1-11.2,13.3L634,525c0.5,0.8,1.4,1.7,2.2,2.3
			c0.7,0.5,1.7,0.8,3.1,1.1v3c-2.4-0.1-4.9-0.2-7.3-0.2c-2.3,0-4.5,0.2-6.8,0.2l-16.9-26.1l0.5-1.4c6.9,0.6,12-3.7,12-10.8
			c0-6.2-4.3-9.5-10.2-9.5c-1.6,0-3.6,0.1-4.8,0.7V521c0,3.2,0.1,5.2,0.5,6.1c0.3,0.6,1.1,0.9,3.1,1.1l2.8,0.2v3
			c-3.1-0.1-7.2-0.2-11.7-0.2c-4.5,0-8.7,0.2-11.7,0.2v-3l2.8-0.2c2-0.1,2.8-0.5,3.1-1.1c0.5-0.9,0.5-2.9,0.5-6.1V490.3z"/>
		<path class="st0" d="M667.8,502.5c1.7,0.2,3.4,0.2,5,0.2h5c2.6,0,4.1-0.2,4.3-1.6l0.5-4.3h3c-0.1,2.7-0.2,5.3-0.2,8.1
			s0.2,5.4,0.2,8.1h-3l-0.5-3.8c-0.2-2.1-1.7-2.8-4.3-2.8h-5c-1.7,0-3.3,0.1-5,0.2v20.1c3.2,0.2,6.4,0.2,9.6,0.2
			c3.5,0,9-0.7,9.2-1.3l1.7-7.1h2.9l-0.8,11.9l-0.4,0.6c-4.9,0.4-13.6,0.4-18.5,0.2c-3.1-0.1-6.2-0.2-9.3-0.2c-3.2,0-6.2,0.2-9,0.2
			v-1.7l2.4-1.4c1.2-0.7,1.5-2,1.5-4.3v-33.7c0-3.2-0.1-5.2-0.5-6.1c-0.4-0.8-1.1-1.1-3.1-1.3l-2.8-0.2v-2.8c5,0.1,8.8,0.2,11.7,0.2
			c7.1,0,12.2-0.2,16.5-0.2c4.2-0.1,7.5-0.1,11,0.2l0.5,0.5l-1.1,10.7h-2.7l-0.6-5.6c-0.2-1.1-5.2-1.4-8.7-1.4
			c-3.2,0-6.5,0.1-9.6,0.2V502.5z"/>
	</g>
	<g>
		<g>
			<path class="st1" d="M760.4,485.9l-25.2-19.1c-86.2-65.5-189.1-100.1-297.6-100.1c-108.5,0-211.4,34.6-297.6,100.1l-24.4,18.5
				L0.2,315.5l22.4-16.6c120.7-89.6,264.3-136.9,415-136.9c153.4,0,303.5,49.5,411.9,135.7L870,314L760.4,485.9z"/>
			<path class="st0" d="M755.6,459l-9.2-7C657,384.1,550.2,348.2,437.7,348.2c-112.6,0-219.3,35.9-308.7,103.8l-9,6.8L25.4,319.6
				l8.2-6.1c117.5-87.2,257.3-133.3,404.1-133.3c149.3,0,295.2,48,400.4,131.7l7.5,6L755.6,459z"/>
			<path class="st1" d="M831.4,320.4C727.7,237.8,581.7,191,437.7,191c-149,0-286.6,48.8-397.7,131.2l82.5,121.5
				c87.5-66.5,196.8-106,315.2-106c118.4,0,227.6,39.5,315.2,106L831.4,320.4"/>
			<path class="st0" d="M106.2,334c-2.8-4.9-4.7-7.9-6.2-9c-1.2-0.9-2.6-0.9-5.5,0.5l-4.1,1.9l-2.5-4.3c7-3.9,12.5-6.8,17.8-9.8
				c7.1-4.1,14-8.4,21-12.7c10.5-6.4,22.5-8.5,30.5,5.3c5.9,10.3,3,21.1-3.7,29.6l37.4,20.9c1.5,0.9,3.4,1.5,5.1,1.8
				c1.4,0.3,3-0.1,5.3-0.8l2.7,4.6c-3.5,1.8-7,3.6-10.4,5.6c-3.1,1.8-6.1,3.9-9.2,5.8l-46.8-26.8l-0.5-2.5
				c10.1-4.6,13.4-15.4,7.1-26.3c-5.5-9.5-14.5-11.2-22.6-6.5c-2.2,1.3-5,3-6.1,4.9l32.9,56.6c2.8,4.9,4.7,8,6.2,9
				c1,0.7,2.4,0.5,5.3-0.9l4.1-1.9l2.7,4.7c-4.4,2.4-10.3,5.5-16.4,9.1c-6.3,3.6-11.9,7.2-16.2,9.8l-2.7-4.6l3.7-2.6
				c2.6-1.8,3.5-3,3.3-4.1c-0.2-1.8-1.9-5-4.7-9.9L106.2,334"/>
			<path class="st0" d="M210.1,329.9l0.8,15.8c0.3,5.4,3.4,6.8,5.5,6.1l5.8-1.8l1.8,4.6c-5.5,2-9.6,3.3-12.9,4.6
				c-3.3,1.3-7.2,3.1-12.6,5.4l-1.8-4.6l3.2-1.7c2.8-1.5,3.4-5.8,3.4-10l-1.1-62.8l-0.5-9.8l-0.2-5.8l-0.3-5.8l8-3.1l58.9,64.3
				c2.5,2.7,4.6,3.9,8.4,3.1l2.8-0.7l1.8,4.6c-7.6,2.8-13.2,4.8-17.6,6.5c-4.4,1.7-9.9,4.2-17.3,7.2l-1.8-4.6l5.8-2.7
				c1.8-0.8,1.9-4.1-1.1-7.5l-10.7-12.3L210.1,329.9 M210.1,321.8l23-9l-24.2-27.2L210.1,321.8z"/>
			<path class="st0" d="M271.8,259.6c-1.2-5.5-2.1-9-3.2-10.4c-0.7-1-2.1-1.2-5.2-0.8l-4.4,0.5l-1.1-5.2c4.9-0.9,11.4-2.1,18.5-3.7
				c7-1.5,13.4-3.2,18.2-4.4l1.1,5.3l-4.3,1.4c-3,0.9-4.2,1.8-4.5,2.9c-0.3,1.7,0.3,5.3,1.5,10.8l5.3,24.3c0.1,0.5,0.7,0.7,1.3,0.5
				l16.9-29c2.2-3.8,4.8-9.2,6.8-13c1-1.9,1.2-3.6,0.9-5.2l-0.7-3.3c3.6-0.6,7.3-1.2,10.9-2c3.6-0.8,7.1-1.9,10.7-2.8l1.1,5.1
				c-4.9,1.6-9.3,2.8-12,7.3l-20.2,32.9l40.4,34.2c3.2,2.8,7.1,5.3,12.2,4.2l1.2,5.4c-4,0.7-8,1.4-12,2.2c-4,0.9-8,2-12,3
				l-31.7-27.3c-3.5-3.1-8.8-7.7-11.3-8.4c-1,0.1-1.2,0.9-1,1.5l5.2,23.8c1.2,5.5,2.1,9,3.2,10.4c0.7,1,2.1,1.2,5.2,0.8l4.4-0.5
				l1.2,5.2c-4.9,1-11.4,2.1-18.4,3.6c-7.1,1.5-13.5,3.2-18.4,4.4l-1.2-5.3l4.3-1.3c3-0.9,4.2-1.7,4.4-2.9c0.4-1.7-0.3-5.3-1.5-10.8
				L271.8,259.6"/>
			<path class="st0" d="M363.1,241.8c-0.3-5.6-0.6-9.3-1.5-10.8c-0.7-1.3-1.9-1.9-5.1-2l-4.5-0.1l-0.3-5c5-0.2,11.6-0.3,18.9-0.7
				c7.1-0.4,13.8-1.1,18.7-1.5l0.3,5l-4.4,0.7c-3.1,0.5-4.3,1.2-4.8,2.6c-0.6,1.7-0.5,5.3-0.2,10.9l1.9,33.3
				c1.1,18.9,2.9,30.8,23.3,29.6c20.2-1.2,21.8-13.7,20.6-33.1l-1.9-32.3c-0.3-5.6-0.7-9.3-1.5-10.8c-0.7-1.3-1.9-1.9-5.1-2
				l-4.5-0.1l-0.3-5c4.6-0.2,9.3-0.2,13.9-0.4c4.6-0.3,9.2-0.8,13.8-1.2l0.3,4.9l-4.5,0.7c-3.1,0.5-4.3,1.2-4.8,2.6
				c-0.6,1.7-0.5,5.3-0.2,10.9l2.3,39.2c1.5,24.5-9.6,36.7-31.4,37.9c-22.8,1.3-35.2-8.9-36.1-24L363.1,241.8"/>
			<path class="st0" d="M453.1,284.5l-0.1,11.9c2.8,6.4,11.9,11.3,18.1,11.8c10.2,0.8,19.4-4.5,20.3-16.2c0.4-5.8-2.3-10.4-9.1-13.2
				l-16.4-7c-9.9-4.1-16.7-12.6-15.8-24.2c1.7-21.4,16.7-28.5,34.2-27.1c7.5,0.6,15.3,2.7,22.1,6.3l0.4,1.6
				c-1.5,4.2-2.6,11.9-3.1,18.9l-5-0.4l0.1-11c-3.3-4.8-9.8-8.2-15.5-8.6c-11.2-0.9-17.1,5.9-17.8,14.9c-0.5,6,3.1,10.8,11.8,14
				l13.4,5.1c10.9,4.1,17.4,12.4,16.4,24.4c-1.8,22.8-19.5,31-37.9,29.5c-8.7-0.7-17.4-3.4-24.7-8.1c2.1-7.8,3-15.4,3.6-23
				L453.1,284.5"/>
			<path class="st0" d="M542.8,271.1c2.7,0.8,5.3,1.4,7.9,1.9l7.9,1.6c4.1,0.9,6.6,1,7.3-1.4l2.2-7.3l4.7,0.9
				c-1.1,4.7-2.2,9.3-3.2,14c-1,4.7-1.7,9.5-2.5,14.3l-4.7-0.9l0.6-6.7c0.4-3.8-1.6-5.4-5.8-6.2l-7.8-1.6c-2.6-0.5-5.2-0.9-8-1.2
				l-7.1,35.2c5,1.2,10,2.4,15.1,3.5c5.5,1.1,14.5,1.7,14.9,0.7l5.2-11.9l4.6,0.9l-5.5,20.6l-0.8,1c-7.8-0.9-21.6-3.7-29.2-5.5
				c-4.9-1.1-9.7-2.3-14.5-3.3c-5-1-9.9-1.7-14.3-2.5l0.6-3l4.3-1.6c2.1-0.8,3.1-2.9,3.9-7l11.9-59c1.1-5.5,1.7-9.1,1.3-10.8
				c-0.3-1.4-1.4-2.3-4.4-3.2L523,231l1-4.8c7.8,1.7,13.8,3.2,18.4,4.1c11.2,2.3,19.3,3.6,26.1,4.8c6.7,1.2,11.9,2.3,17.3,3.9
				l0.5,1.1l-5.4,18.4l-4.3-0.9l1-10.1c0.2-2-7.6-4.1-13.1-5.3c-5.1-1-10.2-1.9-15.3-2.7L542.8,271.1"/>
			<path class="st0" d="M602.2,262c1.9-5.3,3-8.8,2.9-10.5c-0.1-1.5-1.1-2.5-3.9-3.8l-4.1-1.9l1.7-4.7c4.5,1.8,9,3.7,13.5,5.3
				c3.2,1.1,6.5,2,9.7,3c1.9,7,3.5,14.3,5.7,21.1l19,58.8l16.3-45.4c1.9-5.3,3-8.8,2.9-10.5c-0.1-1.5-1-2.5-3.9-3.9l-4.1-1.9
				l1.7-4.7c4.3,1.7,8.6,3.6,13,5.1c4.3,1.6,8.7,2.8,13.1,4.3L684,277l-4.4-1.1c-3.1-0.9-4.4-0.6-5.4,0.5c-1.2,1.3-2.6,4.7-4.5,9.9
				l-20.6,57.4c-1.6,4.4-3,9.1-4.3,12.9l-0.9,0.2l-8.8-5c-2.6-7.5-5.2-15.2-7.6-22.6l-19.1-62.6l-0.2-0.1L590.4,316
				c-1.9,5.3-3,8.8-2.9,10.5c0.1,1.5,1,2.5,3.9,3.9l4.1,1.9l-1.7,4.7c-4.3-1.7-8.5-3.5-12.9-5.1c-4.3-1.6-8.8-2.9-13.2-4.3l1.7-4.7
				l4.3,1.1c3.1,0.8,4.4,0.6,5.4-0.5c1.2-1.3,2.6-4.6,4.5-10L602.2,262"/>
			<path class="st0" d="M680.7,317l9.1-31.2c1.4-4.8,7.6-8.3,12-6.2c4.3,2.1,5.5,9.2,2.6,13.2l-18.8,26.6L680.7,317"/>
			<path class="st0" d="M691.5,348l-5.2,10.6c-0.3,7,5.7,15.4,11.2,18.5c8.8,5.2,19.4,4.3,25.3-5.8c2.9-5,2.4-10.4-2.3-15.9
				l-11.8-13.4c-7.1-8-9.5-18.6-3.8-28.6c10.8-18.6,27.4-18.4,42.6-9.6c6.5,3.8,12.6,9.1,17.1,15.3l-0.3,1.7
				c-3.2,3.1-7.5,9.6-11.1,15.6l-4.3-2.5l4.9-9.9c-0.8-5.8-5.3-11.6-10.1-14.5c-9.7-5.7-18-2.1-22.5,5.7c-3.1,5.2-2,11,4.5,17.7
				l9.9,10.4c8,8.4,10.2,18.7,4.1,29.2c-11.5,19.7-31.1,19.4-46.9,10.2c-7.5-4.4-14.1-10.6-18.7-18.1c5.2-6.1,9.4-12.6,13.3-19.1
				L691.5,348"/>
		</g>
		<path class="st1" d="M437.3,207.6c-57.1,0-103.5-46.4-103.5-103.5S380.2,0.5,437.3,0.5C494.4,0.5,540.8,47,540.8,104
			S494.4,207.6,437.3,207.6z"/>
		<path class="st0" d="M437.3,7.3c-53.3,0-96.7,43.4-96.7,96.7s43.4,96.7,96.7,96.7c53.3,0,96.7-43.4,96.7-96.7S490.6,7.3,437.3,7.3
			z M437.3,177.5c-40.5,0-73.4-32.9-73.4-73.4c0-40.5,32.9-73.4,73.4-73.4c40.5,0,73.4,32.9,73.4,73.4
			C510.7,144.5,477.8,177.5,437.3,177.5z"/>
		<path class="st1" d="M403.7,189.8c1.6,0.5,2.5,0.4,2.8-0.8l3.8-11.2c0.3-0.9-0.2-1.4-1.5-1.8c-0.2-0.1-0.5-0.1-0.7-0.2l0.2-0.7
			c1.9,0.6,3.8,1.1,5.7,1.5l-4.6,13.4c-0.4,1.2,0.1,1.9,1.7,2.5l-0.2,0.7c-1.8-0.7-3.1-1.1-4-1.5c-0.6-0.2-1.9-0.6-3.7-1.2
			L403.7,189.8"/>
		<path class="st1" d="M420.9,192.4l0.7-0.1c0.3,1.8,1.6,3.1,3.2,3.3c2.1,0.2,4-1.8,4.8-6c-1.1,0.7-2.1,0.9-3.3,0.7
			c-3-0.4-5-2.8-4.6-6c0.4-3.3,3-5.2,6.2-4.8c3.6,0.4,5.7,3.5,5.1,8.5c-0.7,5.4-4,8.8-8.7,8.2c-1.2-0.1-2.4-0.5-3.3-1
			C420.9,194.3,420.9,193.3,420.9,192.4 M424.7,183.8c-0.4,3,0.8,5.4,2.5,5.6c1.4,0.2,2.5-1,2.8-3.4c0.4-3.4-0.7-5.6-2.4-5.8
			C426.2,180.1,425,181.3,424.7,183.8z"/>
		<path class="st1" d="M440.1,188.7c-0.5-5.1,1.8-8.7,5.3-9.1c3.6-0.4,6.6,2.5,7.1,7.7c0.5,5.2-2,8.9-5.3,9.2
			C443.5,197,440.7,193.9,440.1,188.7 M449.4,188.7c-0.6-5.6-2.1-8.4-4.1-8.2c-2.1,0.2-2.6,2.5-2,7.2c0.6,5.6,2.1,8.4,4.2,8.2
			C449.3,195.6,449.9,193.2,449.4,188.7z"/>
		<path class="st1" d="M459.1,185.9c-1.7-4.9-0.2-8.9,3.1-10.1c3.4-1.2,6.9,1,8.6,5.9c1.7,5,0.1,9.1-3.1,10.2
			C464.2,193.3,460.8,190.8,459.1,185.9 M468.1,183.8c-1.8-5.3-4-7.8-5.8-7.1c-2,0.7-1.9,3-0.4,7.4c1.8,5.3,3.9,7.8,5.9,7.1
			C469.5,190.6,469.5,188.1,468.1,183.8z"/>
		<path class="st1" d="M393.6,179.2c-26.6-15.5-43.1-44.3-43.1-75.1c0-9,1.4-17.9,4.1-26.4l1.6,0.5c-2.6,8.3-4,17-4,25.8
			c0,30.2,16.2,58.4,42.3,73.6L393.6,179.2z"/>
		<path class="st1" d="M480.8,179.2l-0.8-1.5c26.2-15.2,42.5-43.5,42.5-73.7c0-8.6-1.3-17.2-3.8-25.4l1.6-0.5
			c2.6,8.4,3.9,17.1,3.9,25.9C524.2,134.9,507.5,163.7,480.8,179.2z"/>
		<g>
			<path class="st0" d="M440.9,70.6c0.3-0.8,0.4-1.3,0.4-1.3S441.2,69.8,440.9,70.6z"/>
			<path class="st0" d="M393.9,110.3c5.7-7,11.9-10.4,23.9-16.7c16.2-8.5,21.6-19.3,23-23c-1.4,3.6-6.7,13.9-23.5,22.2
				c-17.7,8.8-23.4,13.2-26.9,20.5c-3.5,7.2-4.5,22.9-4.5,22.9l1.7-2.5C387.7,133.7,388.2,117.2,393.9,110.3z"/>
			<path class="st0" d="M392.4,108.5c0,0,3.5-1.5,4-5.8c0.5-4.2-1.2-7.5-1.2-7.5s0.3,3.2-0.7,7C393.5,106,392.4,108.5,392.4,108.5z"
				/>
			<path class="st0" d="M390.5,99.8c1.7-5.3,3.4-9.1,3.1-12.3c-0.3-3.3,1.1,3.1,3.8,6.6c2.8,3.5,1.8,7.2,1.8,7.2s0.4-0.7,0.7-1.8
				c0.1,1.3,0.3,2.1,0.3,2.1s0.1-6.7,3.4-11.5c3.4-4.8,6.3-8.2,7-11.6c0.8-3.4,0.2,3.5,1.9,7.9c1.7,4.4-0.4,8-0.4,8s0.8-0.7,1.5-1.9
				c0.1,1.2,0.3,1.9,0.3,1.9s0-6.7,3.4-11.5c3.4-4.8,6.3-8.2,7-11.6c0.7-3.4,0.2,3.5,1.9,7.9c1.7,4.4-0.4,7.9-0.4,7.9
				s1.8-1.5,2.2-4.2c0.4,1,0.8,1.7,0.8,1.7s-1.6-5.6,0-10.5c1.6-4.9,3.2-8.5,3-11.5c-0.3-3,1,2.9,3.6,6.1c0.1,0.1,0.1,0.2,0.2,0.3
				c0.4,1.4,1,2.6,1.4,3.3c0.3,1.8,0,3.2,0,3.2s1.9-2.8,0.2-6.1c-0.2-0.5-0.5-1-0.8-1.5c-0.1-1.1-0.1-2.4,0.2-3.6
				c0.9-4.2,1.9-7.3,1.4-9.8c-0.5-2.5,1.1,2.3,3.5,4.8c2.4,2.5,1.9,5.5,1.9,5.5s1.3-2.5-0.3-5c-0.3-0.4-0.6-0.9-1-1.4
				c-0.4-1.3-0.6-2.8-0.5-4.4c0.4-3.6,0.9-6.4,0.3-8.4c-0.6-2.1,1.1,1.8,3.4,3.7c2.3,1.8,2.2,4.4,2.2,4.4s0.8-2.2-0.7-4.2
				c-1.7-2-5-4.3-5.6-5.9c0,0,0.6,1.8,0.3,5c-0.1,1.5-0.6,3.2-0.9,5.5c-0.1,1.1,0,2,0.2,2.9c-1.5-1.8-3.1-3.5-3.4-4.7
				c0,0,0.4,2.2-0.3,5.8c-0.3,1.7-1.2,3.6-1.7,6.3c-0.1,0.7-0.2,1.3-0.2,1.9c-1.7-2.4-3.6-4.9-3.8-6.5c0,0,0.1,2.6-1.1,6.9
				c-0.6,2-1.8,4.1-2.9,7.3c-0.3,0.9-0.4,1.8-0.5,2.7c-1.1-3.3-2.4-6.8-2.1-8.6c0,0-0.7,3-3.5,7.2c-1.3,2-3.4,3.9-5.5,7
				c-0.9,1.4-1.5,2.8-1.9,4.2c-1-3.9-3.2-8.8-2.8-11.1c0,0-0.7,3-3.5,7.2c-1.3,2-3.4,3.9-5.6,7c-1.6,2.3-2.2,4.7-2.4,6.8
				c-0.1-0.4-0.3-0.9-0.5-1.4c-1.7-3.5-5.9-7.9-6.2-10.5c0,0,0.2,2.8-1.2,7.4c-0.6,2.1-2,4.4-3.1,7.8c-1.9,6,1.5,11.5,1.5,11.5
				S388.7,105,390.5,99.8z"/>
			<path class="st0" d="M441.4,84.7c-3.5,2.1-6.1,3.3-6.1,3.3s3.7,1.4,7.2-1.4c3.6-2.8,4.6-6.6,4.6-6.6S444.9,82.6,441.4,84.7z"/>
			<path class="st0" d="M430.1,96.3c-4,0.4-6.8,0.3-6.8,0.3s2.7,2.8,7,1.8c4.3-1.1,6.8-4,6.8-4S434.1,95.9,430.1,96.3z"/>
			<path class="st0" d="M416.8,92.4c0,0,4.1-0.5,5.9-4.6c1.8-4.2,1-8,1-8s-0.7,3.4-2.9,6.9C418.6,90.1,416.8,92.4,416.8,92.4z"/>
			<path class="st0" d="M467.2,124.5c0,0,2.9,0.2,4.8-2.6c1.8-2.8,1.7-5.6,1.7-5.6s-0.9,2.3-2.9,4.6
				C468.8,123.1,467.2,124.5,467.2,124.5z"/>
			<path class="st0" d="M478,117.6c0,0,2.5-0.1,3.8-2.7c1.3-2.5,1-4.9,1-4.9s-0.6,2.1-2.1,4.2C479.2,116.3,478,117.6,478,117.6z"/>
			<path class="st0" d="M494.5,100.3c-1.2,0.9-2.9,1.5-4.8,2.8c-3.5,2.3-4,6.6-4,6.6s1.5-3.8,4.6-5.8c3-2,5.5-3.3,6.7-5.1
				c1.2-1.8-0.7,2.1-0.7,5c0,2.9-2.1,4.5-2.1,4.5s2.3-0.7,2.8-3.3c0.5-2.5,0.2-6.6,1.1-8C498.2,96.9,497.1,98.5,494.5,100.3z"/>
			<path class="st0" d="M485.7,119c-2.5,0.7-4.2,1-4.2,1s2,1.4,4.7,0.2c2.5-1.2,3.7-3.3,3.7-3.3S488.2,118.2,485.7,119z"/>
			<path class="st0" d="M453.3,134.4c1.3-0.3,2.7-0.7,4.1-1.2c1.9-0.4,4-0.6,6.1-0.4c5.8,0.6,10.2,1.4,13.4,0.3c3.3-1-3,1.9-5.9,5.5
				c-3,3.6-7,3.5-7,3.5s3.5,1.3,6.7-1.3c3.2-2.6,6.8-8,9.3-8.9c0,0-2.8,0.9-7.9,0.6c-2.3-0.1-5-1-8.7-1.3c-0.3,0-0.6,0-0.8,0
				c0.5-0.2,1-0.4,1.5-0.7c2.9-1.4,5.5-3,8-4.7c1.4-0.6,3.1-1.1,4.9-1.1c4,0,7.1,0.3,9.2-0.7c2.2-0.9-1.8,1.5-3.6,4.2
				c-1.8,2.7-4.6,2.9-4.6,2.9s2.5,0.7,4.6-1.3c2-2,4.1-6,5.8-6.8c0,0-1.9,0.8-5.4,0.9c-1.6,0.1-3.5-0.4-6.1-0.3
				c-0.7,0-1.4,0.1-2.1,0.3c2.9-2.2,5.6-4.5,8-6.8c0.9-0.5,1.9-1,2.9-1.2c3.6-0.8,6.3-1.2,8-2.5c1.7-1.2-1.3,1.7-2.4,4.5
				c-1,2.8-3.4,3.5-3.4,3.5s2.4,0.1,3.7-2.1c1.4-2.2,2.4-6.1,3.7-7.2c0,0-1.5,1.1-4.6,1.9c-1.4,0.4-3.2,0.4-5.5,1
				c-0.2,0.1-0.4,0.1-0.6,0.2c7.1-7.3,11-13.8,11-13.8s-22.6,31.9-50.8,32.6c-14.7,0.3-22.8-1-33.4,1.7
				c-11.6,2.9-18.5,14.5-18.5,14.5s8.4-11.8,25.2-13.4c2.1-0.2,4.3-0.3,6.6-0.3c2.3,0.9,5.2,2.3,7.4,4.5c4.3,4.4,7.3,7.9,10.6,9.3
				c3.3,1.4-3.6-0.5-8.4,0.5c-4.9,1-8-1.9-8-1.9s1.9,3.5,6.3,3.5c4.3,0,10.8-1.9,13.5-0.9c0,0-2.9-1.2-6.8-4.9
				c-1.8-1.7-3.4-4.2-6.2-7c-1.6-1.6-3.4-2.5-5.1-3.2c3.3,0,6.8,0.1,10.4-0.1c2.3,0.2,5.2,0.8,7.7,2.3c5,2.9,8.5,5.4,11.8,5.9
				c3.4,0.4-3.4,0.4-7.5,2.5c-4.1,2-7.7,0.2-7.7,0.2s2.6,2.7,6.6,1.7c3.9-1,9.4-4.3,12-4c0,0-2.9-0.4-7.3-2.8c-2-1.1-4-3-7.2-4.8
				c-1-0.6-2-0.9-3-1.2c2.7-0.3,5.4-0.7,8.2-1.3L453.3,134.4z"/>
			<path class="st0" d="M471.4,128.1c0,0,1.8,2.1,4.9,1.4c3-0.6,4.9-2.6,4.9-2.6s-2.2,0.9-5,1.1
				C473.4,128.2,471.4,128.1,471.4,128.1z"/>
			<path class="st0" d="M443,142.1c-3.6-1.8-5.9-3.4-5.9-3.4s0.8,3.9,4.9,5.3c4.2,1.4,7.9,0.4,7.9,0.4S446.5,144,443,142.1z"/>
			<path class="st0" d="M443.4,127.9c-3.7,1.8-6.4,2.7-6.4,2.7s3.6,1.8,7.4-0.8c3.8-2.6,5.2-6.2,5.2-6.2S447.2,126.2,443.4,127.9z"
				/>
			<path class="st0" d="M450.3,118.6c-2.1,1-4.9,1.5-8.4,2.9c-1.5,0.6-2.8,1.5-3.9,2.5c1.3-3.9,2-9.1,3.6-10.9c0,0-2.1,2.1-6.8,4.2
				c-2.1,1-4.9,1.5-8.4,2.9c-2.5,1.1-4.4,2.8-5.7,4.5c0.1-0.4,0.3-0.9,0.3-1.4c0.4-3.9-0.7-9.9,0.4-12.2c0,0-1.4,2.5-5,5.6
				c-1.7,1.4-4,2.6-6.8,4.9c-4.9,4.1-5,10.5-5,10.5s1.8-6,6.1-9.4c4.3-3.5,7.8-5.8,9.3-8.7c1.6-2.8-0.7,3.2-0.3,7.6
				c0.5,4.4-2.4,7-2.4,7s0.8-0.4,1.6-1.2c-0.6,1.2-0.9,2-0.9,2s3.7-5.6,9.1-7.8c5.4-2.2,9.7-3.6,12.2-6c2.4-2.4-1.8,3-2.6,7.7
				c-0.9,4.7-4.7,6.5-4.7,6.5s1.1-0.1,2.3-0.8c-0.5,1-0.8,1.8-0.8,1.8s3.7-5.6,9.1-7.8c5.5-2.2,9.7-3.6,12.2-6
				c2.5-2.5-1.7,3-2.7,7.7c-0.9,4.7-4.6,6.4-4.6,6.4s2.4-0.3,4.2-2.3c-0.2,1.1-0.2,1.8-0.2,1.8s1.7-5.6,5.7-8.8
				c4-3.2,7.2-5.4,8.7-8.1c1.4-2.7-0.7,3-0.3,7.1c0,0.1,0,0.3,0,0.4c-0.4,1.4-0.6,2.8-0.6,3.6c-0.7,1.7-1.7,2.6-1.7,2.6
				s3.1-1.4,3.5-4.9c0.1-0.5,0.1-1.1,0.1-1.8c0.5-1,1.2-2,2.1-2.8c3.1-3.1,5.5-5.2,6.5-7.5c0.9-2.3-0.3,2.5,0.3,5.9
				c0.7,3.4-1.3,5.6-1.3,5.6s2.4-1.4,2.4-4.4c0-0.5,0-1.1-0.1-1.7c0.4-1.3,1-2.7,1.9-4c2.3-2.8,4.2-4.9,4.8-6.9c0.6-2.1,0,2.2,0.9,5
				c0.9,2.8-0.6,4.9-0.6,4.9s1.9-1.4,1.7-4c-0.3-2.6-1.9-6.3-1.5-7.9c0,0-0.5,1.8-2.4,4.3c-0.8,1.2-2.2,2.3-3.7,4.1
				c-0.6,0.8-1.1,1.7-1.4,2.5c-0.4-2.3-0.8-4.6-0.3-5.8c0,0-0.8,2-3.4,4.7c-1.2,1.2-2.9,2.4-4.8,4.3c-0.5,0.5-0.9,1-1.2,1.5
				c-0.1-3-0.4-6.1,0.3-7.5c0,0-1.2,2.3-4.6,5.2c-1.6,1.3-3.8,2.5-6.3,4.6c-0.8,0.6-1.4,1.3-1.9,2.1c0.9-3.4,1.6-7,2.9-8.5
				C457.1,114.4,455,116.5,450.3,118.6z"/>
			<path class="st0" d="M430.8,82.2c0,0,3.3-1.4,3.8-5.4c0.4-3.9-1.1-6.9-1.1-6.9s0.2,3-0.7,6.5C431.8,79.9,430.8,82.2,430.8,82.2z"
				/>
			<path class="st0" d="M444.3,59.3c0,0,2.1-1.5,1.8-4.3c-0.3-2.9-1.9-4.7-1.9-4.7s0.6,2.1,0.5,4.6
				C444.6,57.5,444.3,59.3,444.3,59.3z"/>
			<path class="st0" d="M439,70.9c0,0,2.6-1.5,2.6-4.8c0-3.3-1.6-5.7-1.6-5.7s0.5,2.5,0,5.5C439.5,68.9,439,70.9,439,70.9z"/>
			<path class="st0" d="M448.5,59.4c0,0,2.6,0.1,4.1-2.3c1.5-2.4,1.4-4.8,1.4-4.8s-0.8,2-2.5,3.9C449.9,58.2,448.5,59.4,448.5,59.4z
				"/>
			<path class="st0" d="M432.6,86.6c0.9-1,1.8-2,2.7-3.1c1.4-1.3,3-2.7,4.9-3.6c5.2-2.7,9.3-4.4,11.5-7c2.2-2.6-1.5,3.1-2,7.8
				c-0.5,4.7-4,6.8-4,6.8s3.7-0.8,5-4.7c1.3-3.9,1.4-10.4,3-12.6c0,0-2,2.3-6.3,4.7c-2,1.1-4.8,1.9-8.1,3.6
				c-0.2,0.1-0.4,0.3-0.7,0.4c0.3-0.5,0.6-0.9,0.9-1.4c1.1-1.7,2-3.5,2.9-5.3c0.5-1,0.9-2,1.4-3c0.8-1.2,2-2.5,3.4-3.5
				c3.4-2.2,6.1-3.6,7.5-5.5c1.3-2-0.8,2.2-0.9,5.5c0,3.2-2.3,4.9-2.3,4.9s2.5-0.8,3.1-3.6c0.6-2.8,0.3-7.2,1.3-8.8
				c0,0-1.2,1.7-4.1,3.7c-1.3,0.9-3.1,1.6-5.3,3c-0.6,0.4-1.1,0.9-1.6,1.4c1.3-3.5,2.3-6.9,3.1-10.2c0.4-0.9,1-1.8,1.8-2.5
				c2.6-2.6,4.6-4.4,5.4-6.4c0.8-2-0.2,2.1,0.4,5c0.6,2.9-1,4.8-1,4.8s2-1.2,2-3.8c0-2.6-1.2-6.4-0.7-8c0,0-0.7,1.7-2.8,4.1
				c-1,1.1-2.5,2.1-4.1,3.8c-0.1,0.2-0.2,0.3-0.4,0.5c2-9.9,1.9-17.5,1.9-17.5s-0.9,18.9-9.3,35.8c-3.7,7.3-8.8,14.3-15.9,19.1
				c-12.3,8.2-19.7,11.4-27.2,19.4c-8.2,8.8-7.7,22.2-7.7,22.2s0.7-14.5,14-24.9c3.1-2.5,6.7-4.7,10.4-7l2.4-1.5
				c3-2,6.1-4.1,9.2-6.5c1.5-0.5,3.1-0.9,4.7-1c5.7-0.2,10,0,13.1-1.4c3.1-1.4-2.6,2.2-5,6.2c-2.4,3.9-6.4,4.3-6.4,4.3
				s3.6,0.9,6.4-2.1c2.8-3,5.6-8.7,7.9-9.9c0,0-2.7,1.2-7.6,1.5c-2.3,0.2-5-0.3-8.7-0.1c-0.6,0-1.2,0.1-1.8,0.3
				c0.9-0.8,1.9-1.7,2.8-2.7L432.6,86.6z"/>
			<path class="st0" d="M448.4,69.1c-2.3,1.7-4,2.6-4,2.6s2.6,0.8,4.9-1.4c2.2-2.2,2.7-4.9,2.7-4.9S450.7,67.4,448.4,69.1z"/>
			<path class="st0" d="M447.3,41c1.5-3.3,2.8-5.8,2.9-7.9c0-2.2,0.5,2.1,2.1,4.6c1.6,2.5,0.7,4.9,0.7,4.9s1.5-1.9,0.6-4.3
				c-0.9-2.4-3.4-5.6-3.5-7.3c0,0-0.1,1.9-1.2,4.8c-0.5,1.4-1.6,2.8-2.5,4.9c-1.7,3.9,0.2,7.7,0.2,7.7S445.8,44.3,447.3,41z"/>
			<path class="st0" d="M464.3,128c-5.2,2.4-14,4.8-27,3.3c-19.6-2.2-26.8-1.5-33.7,2.7c-6.9,4.2-16.2,16.9-16.2,16.9l2.8-1.1
				c0,0,9.3-13.6,17.9-16.4c8.6-2.8,15.7-2.4,29.2-1.1c13.4,1.2,22.5-1.8,27.6-4.4L464.3,128z"/>
			<path class="st0" d="M407.8,131.1c0,0,3.8,0.6,6.5-2.7c2.7-3.3,3-7,3-7s-1.6,2.9-4.4,5.5C409.9,129.5,407.8,131.1,407.8,131.1z"
				/>
			<path class="st0" d="M427.9,143.6c-3.2-2.8-5.2-5.1-5.2-5.1s-0.3,4.2,3.7,6.8c4,2.6,8,2.5,8,2.5S431.1,146.5,427.9,143.6z"/>
			<path class="st0" d="M427.9,126.6c-3.8,1.8-6.5,2.7-6.5,2.7s3.6,1.8,7.4-0.8c3.8-2.5,5.2-6.2,5.2-6.2S431.7,124.9,427.9,126.6z"
				/>
		</g>
		<path class="st1" d="M430.5,152.3c-1.3,0.4-4.7,0.8-8.3-5.2c-1.6-2.6-1.9-8.5-1.9-8.5s-15.5,3.1-17.4,5.4
			c-1.1,1.3-1.6,1.1-1.9,0.7c-0.7,5.9-3.2,7.9-10.8,8.3l-1.1,0.1v6.9l1.2-0.1c10.6-0.5,17.7-0.8,22.5-0.8c5.3,0,13.3,0.3,22.4,0.8
			l1.2,0.1V153l-1.1-0.1C433.4,152.8,431.8,152.6,430.5,152.3z"/>
		<path class="st1" d="M494,155.3c-7.1-0.4-13-5-17.9-14l-19.7-37.4c14.4-4.4,22.9-14.7,22.9-27.7c0-11.3-4.8-20.1-13.8-25.4
			c-2.3-1.3-4.9-2.3-7.6-3.2c0.1,1.5,0.6,2.9,0.8,5.5c0.3,3.3-1.8,6.9-1.8,6.9l2-0.5c0,0-1.5,4.1-1.4,5.8c0.2,3.5-1.8,5.4-2.9,6.3
			c0.5,2.5,0.8,5.3,0.8,8.4c0,14.2-7.1,20.8-22.3,20.8c-2.1,0-5-0.1-8.7-0.4V54.1c1.5-0.1,2.7-0.1,3.6-0.2c0.9-0.1,1.5-0.1,1.9-0.1
			c1.4,0,2.6,0,3.7,0.2h0c0.8,0.1,2.4,0.3,2.4,0.3l0.1-0.5l0.5-5.5l1.9,2.4c0,0,0-1.1,0.2-2.7c0.1-0.8-0.1-1.9-0.3-2.8
			c-0.6,0-1.1,0-1.7,0c-3.7,0.1-7.5,0.4-11.4,0.7c-5.5,0.4-11.2,0.9-17.1,0.9c-3,0-7.1-0.2-12.4-0.4l-6.8-0.3v6.9l1.1,0.1
			c8.9,0.4,11.1,3,11.1,13v61.7c1.2-2.5,3-5.1,5.2-6.6c5.2-3.6,7.8-4.6,12-9.4c1.7-2,3.1-2.1,4.1-1.4l0.5,0.3l0.8,0.9l0.2,0.7
			c0.1,0.2,0.2,0.5,0.3,0.7l0-4.3h-0.1v-0.5c9.7,0.3,12.5,2.9,15.9,10.4l9.2,20.7c6.5,14.8,18.2,22,35.8,22c1.4,0,4.4,0,8.8-0.5
			l1-0.1v-5.5L494,155.3z"/>
		<g>
			<path class="st1" d="M366.5,73c0.7-1.4,0.3-1.8-1.1-2.6l-9.5-5.1c-1.3-0.7-1.9-0.6-2.7,0.6l-0.6-0.3c0.9-1.5,1.7-2.8,2.3-4.1
				c0.3-0.5,1.3-2.5,3.1-6c0,0,0.2,0.1,0.6,0.3c1.1,0.6,2,0.9,2.7,1.3c0,0,0.1,0,0.1,0.1l-0.3,0.5c-2.1-0.7-3.4,0.1-4.7,2.5
				c-0.2,0.5-0.5,1-0.7,1.5l5.8,3.1c0.2-0.4,0.4-0.7,0.6-1.1c1-1.9,1.1-2.8-0.5-3.7l0.3-0.6c0.9,0.6,1.7,1,2.3,1.3
				c0.6,0.3,1.4,0.7,2.4,1.2l-0.3,0.7c-1.8-0.9-2.4-0.5-3.4,1.4c-0.2,0.4-0.4,0.8-0.7,1.2l4.6,2.5c1.3,0.7,2,0.5,2.9-1.2
				c1.3-2.5,1.2-4.1-0.8-5.7l0.3-0.6c0,0,0.1,0,0.1,0.1c0.7,0.4,1.8,1.2,3.5,2.2c-2.3,4.2-3.7,6.6-4.1,7.4c-0.4,0.7-0.9,1.8-1.7,3.4
				L366.5,73"/>
			<path class="st1" d="M372.1,56.2l0.5-0.6c2.2,1.1,4.5,0.7,5.8-0.9c1.2-1.5,1.2-3.3,0-4.3c-1.2-1-2.3-0.6-4.7,0.3
				c-3.4,1.4-5.4,2.2-7.4,0.5c-2-1.7-2.1-4.8,0.2-7.6c0.9-1,2-2,3.3-2.8c0.4,0.3,0.7,0.6,1.1,0.9c0.6,0.5,1.2,1,2,1.6l-0.5,0.5
				c-2.1-1.3-4.2-0.9-5.6,0.8c-1,1.2-1.1,3,0.1,3.9c1.1,1,2.6,0.4,5-0.7c3.1-1.4,5.2-1.9,7.2-0.2c2.2,1.9,2.3,5-0.1,7.8
				c-0.9,1-2.2,2.2-3.6,3.1C374.2,57.8,373.1,57,372.1,56.2"/>
			<path class="st1" d="M387.5,45.2c1-0.8,1-1.6,0.1-2.8l-7.5-9.7l-1.4,1.1c-1.8,1.4-2,2.6-0.7,4.8l-0.6,0.5
				c-0.9-1.3-1.8-2.5-2.7-3.7c2.4-1.7,4.3-3.2,5.9-4.4c1.6-1.2,3.5-2.7,5.8-4.6c0.9,1.1,1.9,2.3,2.9,3.6l-0.5,0.4
				c-1.8-1.8-3-1.9-4.8-0.6l-1.4,1.1l7.5,9.7c0.9,1.1,1.7,1.3,2.7,0.6l0.4,0.6c-1.2,0.9-2.1,1.5-2.7,2c-0.6,0.4-1.4,1.2-2.6,2.1
				L387.5,45.2"/>
			<path class="st1" d="M397.3,37.6c1.5-0.8,1.7-1.9,1.6-3.9l-0.5-13.9l0.4-0.2l11.2,10c1.1,1,1.7,1.4,3.1,0.8l0.3,0.6
				c-1.4,0.6-2.5,1-3.2,1.3c-0.7,0.3-1.7,0.8-3.1,1.6l-0.3-0.6c1.2-0.6,1.5-1,1.2-1.7c-0.1-0.1-0.2-0.4-0.5-0.6l-2.5-2.3l-5,2.3
				l0.3,3.5c0,0.2,0.1,0.4,0.2,0.6c0.3,0.7,0.8,0.6,2,0.2l0.3,0.6c-1.1,0.5-2,0.8-2.6,1c-0.6,0.2-1.4,0.7-2.5,1.2L397.3,37.6
				 M404.2,28l-4.6-4.2l0.4,6.1L404.2,28z"/>
			<path class="st1" d="M415.4,29.8c1.5-0.3,1.8-0.8,1.5-2.3l-2.2-10.9c-0.3-1.4-0.9-1.7-2.3-1.5l-0.2-0.7c1.1-0.2,2-0.3,2.7-0.4
				c1.6-0.3,3.1-0.8,4.4-1.1c3.6-0.7,5.7,0.4,6.1,2.8c0.4,1.9-0.6,3.4-2.9,4.5c2.9-0.2,4.7,1,5.1,3.3c0.6,2.7-1,4.7-4.6,5.5
				c-1.4,0.3-3,0.4-4.8,0.8c-0.7,0.1-1.6,0.4-2.8,0.7L415.4,29.8 M418.6,20.9c0.4,0,0.7-0.1,1-0.2c2.6-0.5,3.7-1.7,3.2-3.9
				c-0.4-2.1-2-3.2-4.6-2.7c-0.6,0.1-0.9,0.2-0.9,0.2L418.6,20.9z M419.9,27.3c0.2,1.1,0.8,1.4,2.2,1.2c2.1-0.4,3.1-1.9,2.7-3.9
				c-0.5-2.5-2.4-3.6-5.5-3c-0.1,0.1-0.3,0.1-0.5,0.1L419.9,27.3z"/>
			<path class="st1" d="M432.7,26.9c1.5,0,1.8-0.6,1.8-2.2l0.2-10.7c0-1.5-0.3-2-1.7-2.1v-0.7c1.4,0.1,2.5,0.1,3.4,0.2
				c0.8,0,1.9,0,3.3,0v0.7c-1.5,0.1-1.8,0.5-1.8,2l-0.2,10.8c0,1.5,0.5,1.9,2.7,2c3.1,0.1,4.3-0.7,4.9-3.2l0.8,0c0,0,0,0.1,0,0.2
				c0,0.9-0.4,2.3-0.5,4c-4.5-0.1-7.7-0.2-9.6-0.3c-0.5,0-1.7,0-3.3,0.1L432.7,26.9"/>
			<path class="st1" d="M449.4,27.9c1.5,0.2,1.8-0.2,2.1-1.8l2.1-10.5c0.3-1.5,0.1-2-1.3-2.4l0.1-0.7c1.3,0.3,2.4,0.6,3.2,0.7
				c0.9,0.2,2,0.4,3.3,0.6l-0.1,0.7c-1.5-0.2-1.8,0.2-2.2,1.7l-2.1,10.6c-0.3,1.5-0.1,2,1.3,2.4l-0.1,0.7c-1.5-0.4-2.5-0.6-3.3-0.8
				c-0.8-0.2-1.8-0.3-3.3-0.6L449.4,27.9"/>
			<path class="st1" d="M461.8,26.9l0.7,0.3c-0.3,2.5,0.8,4.5,2.7,5.3c1.8,0.7,3.5,0.1,4.1-1.4c0.5-1.4-0.2-2.4-1.8-4.3
				c-2.4-2.7-3.9-4.4-2.9-6.9c0.9-2.4,3.9-3.6,7.3-2.2c1.2,0.5,2.6,1.3,3.7,2.2c-0.2,0.5-0.4,0.8-0.5,1.3c-0.3,0.8-0.6,1.6-0.9,2.4
				l-0.6-0.3c0.5-2.4-0.5-4.3-2.6-5.1c-1.5-0.6-3.2-0.1-3.7,1.3c-0.6,1.4,0.4,2.6,2.2,4.5c2.3,2.5,3.4,4.3,2.5,6.7
				c-1.1,2.8-4,3.8-7.4,2.5c-1.3-0.5-2.7-1.4-4.1-2.5C461,29.4,461.4,28.2,461.8,26.9"/>
			<path class="st1" d="M474.6,36c1.3,0.9,1.8,0.6,2.7-0.7l6.3-8.7c0.8-1.2,0.8-1.8-0.3-2.7l0.4-0.6c1,0.8,1.9,1.5,2.6,2
				c0.7,0.5,1.6,1.1,2.7,1.8l-0.4,0.6c-1.3-0.8-1.8-0.6-2.6,0.7l-2.6,3.6l6.8,4.9l2.6-3.7c0.8-1.1,0.8-1.7-0.3-2.6l0.4-0.6
				c1,0.8,1.8,1.5,2.6,2c0.7,0.5,1.6,1.1,2.8,1.8l-0.4,0.6c-1.2-0.8-1.8-0.6-2.6,0.6l-6.2,8.7c-1,1.3-1.1,1.9,0.1,2.9l-0.4,0.6
				c-1.1-0.9-2-1.6-2.6-2c-0.6-0.4-1.5-1-2.7-1.8l0.4-0.6c1.3,0.8,1.8,0.5,2.7-0.8l3.1-4.3l-6.9-4.9l-3.1,4.4
				c-0.9,1.2-1,1.8,0.2,2.7l-0.4,0.6c-1.2-0.9-2-1.6-2.6-2c-0.6-0.4-1.5-1-2.7-1.8L474.6,36"/>
			<path class="st1" d="M492.1,49.5c1,1.1,1.6,1,2.8-0.1l8.2-6.9c1.1-1,1.3-1.5,0.4-2.7l0.5-0.4c1.1,1.4,2,2.5,2.9,3.6
				c0.4,0.4,1.9,2.2,4.5,5c0,0-0.2,0.1-0.5,0.4c-0.9,0.8-1.6,1.6-2.2,2.1c0,0-0.1,0.1-0.1,0.1l-0.4-0.5c1.5-1.7,1.2-3.2-0.6-5.2
				c-0.4-0.4-0.7-0.8-1.2-1.3l-5,4.2c0.2,0.4,0.5,0.7,0.8,0.9c1.4,1.7,2.2,2,3.6,0.9l0.4,0.5c-0.9,0.7-1.5,1.2-2.1,1.7
				c-0.5,0.5-1.2,1.1-2,1.8l-0.5-0.6c1.5-1.4,1.3-2.1-0.1-3.7c-0.3-0.3-0.6-0.6-0.9-1l-4,3.4c-1.1,1-1.1,1.7,0,3.1
				c1.8,2.1,3.4,2.6,5.6,1.3l0.4,0.5c0,0-0.1,0.1-0.1,0.1c-0.6,0.5-1.8,1.1-3.3,2.4c-3-3.7-4.8-5.8-5.4-6.5
				c-0.5-0.6-1.3-1.5-2.5-2.8L492.1,49.5"/>
			<path class="st1" d="M502.5,62.1c0.7,1.3,1.3,1.5,2.6,0.9l10-4.9c1.3-0.6,1.4-1.3,0.8-2.6l0.7-0.3c0.5,1.1,0.8,2,1.2,2.7
				c0.9,1.7,1.8,3.3,2.5,4.6c1.3,2.6,1.9,4.7,1.2,7c-0.6,2-2.2,3.9-4.2,4.9c-4.7,2.3-9.2,0.6-11.8-4.6c-0.6-1.1-1.1-2.6-2-4.4
				c-0.5-0.9-1-1.9-1.6-3L502.5,62.1 M506.6,65.7c-1.2,0.6-1.5,1.3-0.7,2.8c1.9,3.8,5.3,4.9,9.2,3c4.3-2.2,5.8-5.7,3.8-9.6
				c-0.2-0.5-0.6-1.1-1-1.8L506.6,65.7z"/>
		</g>
		<g>
			<path class="st0" d="M423.2,148.5c-0.3-0.4-0.7-0.9-1-1.5c-1.6-2.6-1.9-8.5-1.9-8.5s-13.9,2.8-17,5.1c-0.6,7.4-3.2,10.8-12,11.5
				v2.5c10-0.5,16.8-0.7,21.5-0.7c5.1,0,12.7,0.3,21.3,0.7V155C427.7,154.5,424.6,152.5,423.2,148.5z"/>
			<path class="st0" d="M474.1,142.3l-21-39.8l1.3-0.4c14.1-3.8,22.5-13.6,22.5-26c0-10.5-4.4-18.6-12.7-23.5
				c-1.8-1.1-3.9-1.9-6.1-2.7c0.2,0.8,0.3,1.8,0.4,3c0.3,3.3-1.8,6.9-1.8,6.9l2-0.5c0,0-1.5,4.1-1.4,5.8c0.1,1.9-0.4,3.3-1.1,4.3
				c0.8,3.1,1.2,6.5,1.2,10.3c0,15.5-8,23.1-24.5,23.1c-2.3,0-5.7-0.2-9.9-0.5l-1-0.1V52l1.1,0c2-0.1,3.5-0.2,4.6-0.2
				c1-0.1,1.7-0.1,2-0.1c1.5,0,2.8,0.1,3.9,0.2c0.9,0.1,1.7,0.2,2.5,0.3l0.4-3.7l1.9,2.4c0,0,0-1.1,0.2-2.7c0-0.2,0-0.4,0-0.6
				c-0.6,0-1.3,0-1.9,0h0c-3.7,0.1-7.4,0.4-11.3,0.7c-5.6,0.4-11.3,0.9-17.3,0.9c-3,0-7.2-0.2-12.5-0.4l-4.5-0.2v2.5
				c9.3,0.7,12.2,4.4,12.2,15.1v58c0.9-1.2,1.8-2.2,2.9-3c5.2-3.6,7.8-4.6,12-9.4c0.4-0.4,0.7-0.7,1-1c0.4-0.3,2-1.4,2.7-1.8v-3
				l1.1,0c10.9,0.2,14.9,2.6,19,11.7l9.2,20.7c6.2,14.1,16.9,20.7,33.8,20.7c1.3,0,3.8,0,7.6-0.4v-1.5
				C485.3,156.6,479.2,151.6,474.1,142.3z"/>
		</g>
	</g>
</g>
</svg>
